<mxfile host="app.diagrams.net" modified="2023-10-31T15:53:28.638Z" agent="Mozilla/5.0 (Macintosh; Intel Mac OS X 10_15_7) AppleWebKit/537.36 (KHTML, like Gecko) Chrome/118.0.0.0 Safari/537.36" version="22.0.8" etag="vFGgO4GR2m9fWeAvFTKE" type="github">
  <diagram name="第 1 页" id="_hksW_N471lnl7UT-Y4E">
    <mxGraphModel>
      <root>
        <mxCell id="0" />
        <mxCell id="1" parent="0" />
      </root>
    </mxGraphModel>
  </diagram>
</mxfile>
